ffmpeg version N-89674-g57d0c24132 Copyright (c) 2000-2018 the FFmpeg developers
  built with gcc 7.2.0 (GCC)
  configuration: --enable-gpl --enable-version3 --enable-sdl2 --enable-bzlib --enable-fontconfig --enable-gnutls --enable-iconv --enable-libass --enable-libbluray --enable-libfreetype --enable-libmp3lame --enable-libopencore-amrnb --enable-libopencore-amrwb --enable-libopenjpeg --enable-libopus --enable-libshine --enable-libsnappy --enable-libsoxr --enable-libtheora --enable-libtwolame --enable-libvpx --enable-libwavpack --enable-libwebp --enable-libx264 --enable-libx265 --enable-libxml2 --enable-libzimg --enable-lzma --enable-zlib --enable-gmp --enable-libvidstab --enable-libvorbis --enable-libvo-amrwbenc --enable-libmysofa --enable-libspeex --enable-amf --enable-cuda --enable-cuvid --enable-d3d11va --enable-nvenc --enable-dxva2 --enable-avisynth --enable-libmfx
  libavutil      56.  7.100 / 56.  7.100
  libavcodec     58.  9.100 / 58.  9.100
  libavformat    58.  3.100 / 58.  3.100
  libavdevice    58.  0.100 / 58.  0.100
  libavfilter     7.  8.100 /  7.  8.100
  libswscale      5.  0.101 /  5.  0.101
  libswresample   3.  0.101 /  3.  0.101
  libpostproc    55.  0.100 / 55.  0.100
Input #0, image2pipe, from 'pipe:':
  Duration: N/A, bitrate: N/A
    Stream #0:0: Video: ppm, rgb24, 320x240, 20 fps, 20 tbr, 20 tbn, 20 tbc
Stream mapping:
  Stream #0:0 -> #0:0 (ppm (native) -> h264 (libx264))
[libx264 @ 000001d1098c7240] using cpu capabilities: MMX2 SSE2Fast SSSE3 SSE4.2 AVX FMA3 BMI2 AVX2
[libx264 @ 000001d1098c7240] profile High, level 1.3
[libx264 @ 000001d1098c7240] 264 - core 152 r2851 ba24899 - H.264/MPEG-4 AVC codec - Copyleft 2003-2017 - http://www.videolan.org/x264.html - options: cabac=1 ref=3 deblock=1:0:0 analyse=0x3:0x113 me=hex subme=7 psy=1 psy_rd=1.00:0.00 mixed_ref=1 me_range=16 chroma_me=1 trellis=1 8x8dct=1 cqm=0 deadzone=21,11 fast_pskip=1 chroma_qp_offset=-2 threads=6 lookahead_threads=1 sliced_threads=0 nr=0 decimate=1 interlaced=0 bluray_compat=0 constrained_intra=0 bframes=3 b_pyramid=2 b_adapt=1 b_bias=0 direct=1 weightb=1 open_gop=0 weightp=2 keyint=250 keyint_min=20 scenecut=40 intra_refresh=0 rc_lookahead=40 rc=abr mbtree=1 bitrate=400 ratetol=1.0 qcomp=0.60 qpmin=0 qpmax=69 qpstep=4 ip_ratio=1.40 aq=1:1.00
Output #0, mp4, to '.\mission_records\7d5f68cc-e96a-4d24-8498-afb70466a361\video.mp4':
  Metadata:
    encoder         : Lavf58.3.100
    Stream #0:0: Video: h264 (libx264) (avc1 / 0x31637661), yuv420p, 320x240, q=-1--1, 400 kb/s, 20 fps, 10240 tbn, 20 tbc
    Metadata:
      encoder         : Lavc58.9.100 libx264
    Side data:
      cpb: bitrate max/min/avg: 0/0/400000 buffer size: 0 vbv_delay: -1
frame=   15 fps=0.0 q=-1.0 Lsize=      13kB time=00:00:00.60 bitrate= 179.7kbits/s speed=8.68x    
video:12kB audio:0kB subtitle:0kB other streams:0kB global headers:0kB muxing overhead: 8.124800%
[libx264 @ 000001d1098c7240] frame I:1     Avg QP:20.35  size: 10217
[libx264 @ 000001d1098c7240] frame P:4     Avg QP:20.57  size:   260
[libx264 @ 000001d1098c7240] frame B:10    Avg QP:23.78  size:    51
[libx264 @ 000001d1098c7240] consecutive B-frames:  6.7% 13.3%  0.0% 80.0%
[libx264 @ 000001d1098c7240] mb I  I16..4: 36.3% 19.3% 44.3%
[libx264 @ 000001d1098c7240] mb P  I16..4:  4.1%  0.0%  0.6%  P16..4:  4.0%  0.2%  0.3%  0.0%  0.0%    skip:90.8%
[libx264 @ 000001d1098c7240] mb B  I16..4:  0.0%  0.0%  0.0%  B16..8:  3.1%  0.3%  0.1%  direct: 0.2%  skip:96.3%  L0:14.0% L1:85.1% BI: 1.0%
[libx264 @ 000001d1098c7240] final ratefactor: 14.64
[libx264 @ 000001d1098c7240] 8x8 transform intra:16.3% inter:36.6%
[libx264 @ 000001d1098c7240] coded y,uvDC,uvAC intra: 42.1% 55.1% 48.0% inter: 0.4% 0.6% 0.4%
[libx264 @ 000001d1098c7240] i16 v,h,dc,p:  2% 96%  1%  2%
[libx264 @ 000001d1098c7240] i8 v,h,dc,ddl,ddr,vr,hd,vl,hu:  1% 60%  6%  2%  1%  2%  4%  1% 22%
[libx264 @ 000001d1098c7240] i4 v,h,dc,ddl,ddr,vr,hd,vl,hu: 10% 36% 12%  6%  6%  4%  9%  4% 13%
[libx264 @ 000001d1098c7240] i8c dc,h,v,p: 32% 60%  3%  5%
[libx264 @ 000001d1098c7240] Weighted P-Frames: Y:0.0% UV:0.0%
[libx264 @ 000001d1098c7240] ref P L0: 65.7%  4.6% 26.9%  2.8%
[libx264 @ 000001d1098c7240] ref B L0: 61.4% 33.7%  4.8%
[libx264 @ 000001d1098c7240] ref B L1: 93.4%  6.6%
[libx264 @ 000001d1098c7240] kb/s:125.48
its/s speed=0.632x    frame=  176 fps= 18 q=2.0 size=       0kB time=00:00:06.15 bitrate=   0.1kbits/s speed=0.64x    frame=  184 fps= 18 q=2.0 size=       0kB time=00:00:06.55 bitrate=   0.1kbits/s speed=0.647x    frame=  192 fps= 18 q=1.0 size=       0kB time=00:00:06.95 bitrate=   0.1kbits/s speed=0.651x    frame=  200 fps= 18 q=1.0 size=       0kB time=00:00:07.35 bitrate=   0.1kbits/s speed=0.657x    frame=  208 fps= 18 q=0.0 size=       0kB time=00:00:07.75 bitrate=   0.0kbits/s speed=0.661x    frame=  217 fps= 18 q=0.0 size=       0kB time=00:00:08.20 bitrate=   0.0kbits/s speed=0.668x    frame=  226 fps= 18 q=0.0 size=       0kB time=00:00:08.65 bitrate=   0.0kbits/s speed=0.675x    frame=  235 fps= 18 q=0.0 size=       0kB time=00:00:09.10 bitrate=   0.0kbits/s speed=0.683x    frame=  244 fps= 18 q=0.0 size=       0kB time=00:00:09.55 bitrate=   0.0kbits/s speed=0.688x    frame=  252 fps= 17 q=0.0 size=       0kB time=00:00:09.95 bitrate=   0.0kbits/s speed=0.69x    frame=  260 fps= 17 q=0.0 size=       0kB time=00:00:10.35 bitrate=   0.0kbits/s speed=0.694x    frame=  269 fps= 17 q=0.0 size=       0kB time=00:00:10.80 bitrate=   0.0kbits/s speed=0.699x    frame=  278 fps= 17 q=0.0 size=       0kB time=00:00:11.25 bitrate=   0.0kbits/s speed=0.704x    frame=  287 fps= 17 q=0.0 size=       0kB time=00:00:11.70 bitrate=   0.0kbits/s speed=0.708x    frame=  295 fps= 17 q=0.0 size=       0kB time=00:00:12.10 bitrate=   0.0kbits/s speed=0.71x    frame=  303 fps= 17 q=0.0 size=       0kB time=00:00:12.50 bitrate=   0.0kbits/s speed=0.712x    frame=  311 fps= 17 q=0.0 size=       0kB time=00:00:12.90 bitrate=   0.0kbits/s speed=0.714x    frame=  320 fps= 17 q=0.0 size=       0kB time=00:00:13.35 bitrate=   0.0kbits/s speed=0.718x    frame=  321 fps= 17 q=-1.0 Lsize=     202kB time=00:00:15.90 bitrate= 104.0kbits/s speed=0.842x    
video:197kB audio:0kB subtitle:0kB other streams:0kB global headers:0kB muxing overhead: 2.296161%
[libx264 @ 0000028161ec6b80] frame I:2     Avg QP: 9.36  size: 25007
[libx264 @ 0000028161ec6b80] frame P:86    Avg QP: 1.60  size:   888
[libx264 @ 0000028161ec6b80] frame B:233   Avg QP: 4.76  size:   322
[libx264 @ 0000028161ec6b80] consecutive B-frames:  0.9%  5.0%  5.6% 88.5%
[libx264 @ 0000028161ec6b80] mb I  I16..4: 53.8%  2.8% 43.3%
[libx264 @ 0000028161ec6b80] mb P  I16..4:  0.9%  0.0%  0.0%  P16..4:  9.0%  0.5%  0.4%  0.0%  0.0%    skip:89.1%
[libx264 @ 0000028161ec6b80] mb B  I16..4:  0.0%  0.0%  0.0%  B16..8:  3.8%  0.5%  0.2%  direct: 0.5%  skip:95.0%  L0:41.2% L1:54.8% BI: 4.0%
[libx264 @ 0000028161ec6b80] final ratefactor: -3.53
[libx264 @ 0000028161ec6b80] 8x8 transform intra:3.4% inter:18.7%
[libx264 @ 0000028161ec6b80] coded y,uvDC,uvAC intra: 38.2% 47.5% 41.9% inter: 2.7% 3.0% 3.0%
[libx264 @ 0000028161ec6b80] i16 v,h,dc,p:  1% 94%  3%  2%
[libx264 @ 0000028161ec6b80] i8 v,h,dc,ddl,ddr,vr,hd,vl,hu:  3% 57% 15%  3%  4%  2%  6%  1%  9%
[libx264 @ 0000028161ec6b80] i4 v,h,dc,ddl,ddr,vr,hd,vl,hu:  7% 37% 13%  6%  6%  4% 11%  4% 13%
[libx264 @ 0000028161ec6b80] i8c dc,h,v,p: 23% 71%  3%  4%
[libx264 @ 0000028161ec6b80] Weighted P-Frames: Y:0.0% UV:0.0%
[libx264 @ 0000028161ec6b80] ref P L0: 76.5%  0.3% 12.0% 11.2%
[libx264 @ 0000028161ec6b80] ref B L0: 44.2% 43.3% 12.5%
[libx264 @ 0000028161ec6b80] ref B L1: 79.5% 20.5%
[libx264 @ 0000028161ec6b80] kb/s:100.39


7% 68%  2%  3%
[libx264 @ 00000237a8bd6b80] Weighted P-Frames: Y:0.0% UV:0.0%
[libx264 @ 00000237a8bd6b80] ref P L0: 80.9%  0.5% 11.2%  7.4%
[libx264 @ 00000237a8bd6b80] ref B L0: 52.5% 35.8% 11.7%
[libx264 @ 00000237a8bd6b80] ref B L1: 83.5% 16.5%
[libx264 @ 00000237a8bd6b80] kb/s:97.12
